<svg width="30" height="30" viewBox="0 0 30 30" fill="none" xmlns="http://www.w3.org/2000/svg">
<rect width="30" height="30" rx="15" fill="#E3E3E3"/>
<mask id="mask0_426_24901" style="mask-type:alpha" maskUnits="userSpaceOnUse" x="3" y="3" width="24" height="24">
<rect x="3" y="3" width="24" height="24" rx="1" fill="#949598"/>
</mask>
<g mask="url(#mask0_426_24901)">
<path d="M10.1 21.3C9.7134 21.6866 9.0866 21.6866 8.7 21.3C8.3134 20.9134 8.3134 20.2866 8.7 19.9L12.8929 15.7071C13.2834 15.3166 13.2834 14.6834 12.8929 14.2929L8.7 10.1C8.3134 9.7134 8.3134 9.0866 8.7 8.7C9.0866 8.3134 9.7134 8.3134 10.1 8.7L14.2929 12.8929C14.6834 13.2834 15.3166 13.2834 15.7071 12.8929L19.9 8.7C20.2866 8.3134 20.9134 8.3134 21.3 8.7C21.6866 9.0866 21.6866 9.7134 21.3 10.1L17.1071 14.2929C16.7166 14.6834 16.7166 15.3166 17.1071 15.7071L21.3 19.9C21.6866 20.2866 21.6866 20.9134 21.3 21.3C20.9134 21.6866 20.2866 21.6866 19.9 21.3L15.7071 17.1071C15.3166 16.7166 14.6834 16.7166 14.2929 17.1071L10.1 21.3Z" fill="#888888"/>
</g>
</svg>
