<svg width="14" height="14" viewBox="0 0 14 14" fill="none" xmlns="http://www.w3.org/2000/svg">
<mask id="mask0_176_8170" style="mask-type:alpha" maskUnits="userSpaceOnUse" x="0" y="0" width="14" height="14">
<rect width="14" height="14" rx="1" fill="#D9D9D9"/>
</mask>
<g mask="url(#mask0_176_8170)">
<path d="M4.71138 12.7605C3.95462 13.2218 3.01625 12.5435 3.21687 11.6803L3.69144 9.63819C3.77513 9.27803 3.65327 8.90109 3.37457 8.65809L1.77986 7.26767C1.11407 6.68717 1.47284 5.59167 2.35304 5.51747L4.43233 5.3422C4.80304 5.31095 5.12576 5.07648 5.27005 4.73358L6.07828 2.81281C6.42172 1.99661 7.57828 1.99661 7.92172 2.81281L8.72995 4.73358C8.87424 5.07648 9.19696 5.31095 9.56767 5.3422L11.647 5.51747C12.5272 5.59167 12.8859 6.68717 12.2201 7.26767L10.6254 8.65809C10.3467 8.90109 10.2249 9.27803 10.3086 9.63819L10.7831 11.6803C10.9837 12.5435 10.0454 13.2218 9.28862 12.7605L7.52047 11.6828C7.20084 11.4879 6.79916 11.4879 6.47953 11.6828L4.71138 12.7605Z" fill="#FF0558"/>
</g>
</svg>
