<svg width="14" height="14" viewBox="0 0 14 14" fill="none" xmlns="http://www.w3.org/2000/svg">
<path d="M7 2.20068C6.625 2.20068 6.25 2.40473 6.07827 2.81284L5.27005 4.7336C5.12576 5.07651 4.80304 5.31097 4.43232 5.34222L2.35304 5.5175C1.47284 5.59169 1.11407 6.6872 1.77986 7.2677L3.37457 8.65812C3.65327 8.90111 3.77513 9.27806 3.69143 9.63822L3.21686 11.6803C3.01625 12.5436 3.95462 13.2218 4.71138 12.7605L6.47953 11.6828C6.63934 11.5854 6.81967 11.5367 7 11.5367V2.20068Z" fill="#FF0558"/>
<path d="M7 2.20068C7.3747 2.20068 7.74941 2.40475 7.921 2.81289L8.72859 4.73383C8.87277 5.07677 9.19524 5.31125 9.56566 5.34251L11.6433 5.5178C12.5228 5.592 12.8813 6.6876 12.216 7.26815L10.6226 8.6587C10.3441 8.90172 10.2223 9.2787 10.306 9.63889L10.7802 11.6812C10.9806 12.5445 10.043 13.2228 9.28682 12.7615L7.52006 11.6836C7.36037 11.5862 7.18018 11.5375 7 11.5375V2.20068Z" fill="#A7A7A7"/>
</svg>
