<svg width="20" height="20" viewBox="0 0 20 20" fill="none" xmlns="http://www.w3.org/2000/svg">
<path fill-rule="evenodd" clip-rule="evenodd" d="M7.96188 7.88454V15.835H14.3115C15.8589 15.835 16.0724 13.9141 16.1257 12.7935C16.1516 12.2508 16.3102 11.6679 16.4669 11.0921C16.6337 10.4791 16.7984 9.87401 16.7984 9.33382C16.7984 8.28619 16.5656 7.00575 14.9359 7.00575H13.5564V4.46168C13.5564 3.62527 12.1534 2.08285 11.0128 3.02959V5.09186C11.0128 5.33001 10.6037 5.50699 10.0851 5.73132C9.18746 6.1196 7.96188 6.64976 7.96188 7.88454ZM4.20163 7.80054C3.64934 7.80054 3.20163 8.24825 3.20163 8.80054V16.2678C3.20163 16.8201 3.64934 17.2678 4.20163 17.2678H6.15897C6.71125 17.2678 7.15897 16.8201 7.15897 16.2678V8.80054C7.15897 8.24825 6.71125 7.80054 6.15897 7.80054H4.20163Z" fill="#888888"/>
</svg>
