<svg width="16" height="17" viewBox="0 0 16 17" fill="none" xmlns="http://www.w3.org/2000/svg">
<path d="M10 7.16667L9.34267 7.05733C9.3268 7.1528 9.3319 7.25057 9.35762 7.34386C9.38334 7.43715 9.42907 7.52373 9.49161 7.59757C9.55416 7.67141 9.63204 7.73075 9.71983 7.77146C9.80762 7.81218 9.90323 7.83329 10 7.83333V7.16667ZM2.66667 7.16667V6.5C2.48986 6.5 2.32029 6.57024 2.19526 6.69526C2.07024 6.82029 2 6.98986 2 7.16667H2.66667ZM4 14.5H11.5733V13.1667H4V14.5ZM12.3733 6.5H10V7.83333H12.3733V6.5ZM10.658 7.276L11.1947 4.05267L9.88 3.83333L9.34267 7.05733L10.658 7.276ZM9.88 2.5H9.73733V3.83333H9.88V2.5ZM7.518 3.68733L5.84133 6.20333L6.95067 6.94333L8.628 4.42733L7.518 3.68733ZM5.28667 6.5H2.66667V7.83333H5.28667V6.5ZM2 7.16667V12.5H3.33333V7.16667H2ZM13.5347 12.892L14.3347 8.892L13.028 8.63067L12.228 12.6307L13.5347 12.892ZM5.84133 6.20333C5.78043 6.29461 5.69795 6.36945 5.60119 6.4212C5.50443 6.47295 5.39639 6.50002 5.28667 6.5V7.83333C5.61591 7.83331 5.94006 7.752 6.23034 7.59663C6.52061 7.44126 6.76805 7.21662 6.95067 6.94267L5.84133 6.20267V6.20333ZM11.1947 4.05267C11.2265 3.86169 11.2164 3.66607 11.165 3.47941C11.1136 3.29274 11.0222 3.1195 10.8971 2.97174C10.772 2.82398 10.6162 2.70524 10.4405 2.62378C10.2649 2.54231 10.0736 2.50007 9.88 2.5V3.83333L11.1947 4.05267ZM12.3733 7.83333C12.472 7.83329 12.5694 7.85515 12.6586 7.89732C12.7478 7.93949 12.8265 8.00093 12.889 8.07721C12.9516 8.15348 12.9965 8.24269 13.0204 8.3384C13.0443 8.43411 13.0473 8.53393 13.028 8.63067L14.3347 8.892C14.3927 8.6019 14.3856 8.30255 14.3139 8.01552C14.2422 7.72849 14.1078 7.46094 13.9202 7.23214C13.7327 7.00334 13.4967 6.819 13.2294 6.69239C12.962 6.56579 12.6698 6.50008 12.374 6.5V7.83333H12.3733ZM11.5733 14.5C12.0357 14.5 12.4839 14.3398 12.8415 14.0466C13.1991 13.7535 13.444 13.3454 13.5347 12.892L12.228 12.6307C12.1978 12.782 12.116 12.9181 11.9966 13.0158C11.8772 13.1136 11.7276 13.1669 11.5733 13.1667V14.5ZM9.73733 2.5C9.29825 2.4999 8.86593 2.60822 8.47877 2.81535C8.09161 3.02248 7.76158 3.32201 7.518 3.68733L8.628 4.42733C8.74972 4.24465 8.91466 4.09486 9.10818 3.99123C9.30171 3.88761 9.51782 3.83337 9.73733 3.83333V2.5ZM4 13.1667C3.82319 13.1667 3.65362 13.0964 3.5286 12.9714C3.40357 12.8464 3.33333 12.6768 3.33333 12.5H2C2 13.0304 2.21071 13.5391 2.58579 13.9142C2.96086 14.2893 3.46957 14.5 4 14.5V13.1667Z" fill="#888888"/>
<path d="M5.33301 7.16699V13.8337" stroke="#888888" stroke-width="2"/>
</svg>
