<svg width="24" height="24" viewBox="0 0 24 24" fill="none" xmlns="http://www.w3.org/2000/svg">
<path d="M10.8 18.2998C10.8 17.902 10.9581 17.5204 11.2394 17.2391C11.5207 16.9578 11.9022 16.7998 12.3 16.7998C12.6979 16.7998 13.0794 16.9578 13.3607 17.2391C13.642 17.5204 13.8 17.902 13.8 18.2998C13.8 18.6976 13.642 19.0792 13.3607 19.3605C13.0794 19.6418 12.6979 19.7998 12.3 19.7998C11.9022 19.7998 11.5207 19.6418 11.2394 19.3605C10.9581 19.0792 10.8 18.6976 10.8 18.2998ZM10.8 12.2998C10.8 11.902 10.9581 11.5204 11.2394 11.2391C11.5207 10.9578 11.9022 10.7998 12.3 10.7998C12.6979 10.7998 13.0794 10.9578 13.3607 11.2391C13.642 11.5204 13.8 11.902 13.8 12.2998C13.8 12.6976 13.642 13.0792 13.3607 13.3605C13.0794 13.6418 12.6979 13.7998 12.3 13.7998C11.9022 13.7998 11.5207 13.6418 11.2394 13.3605C10.9581 13.0792 10.8 12.6976 10.8 12.2998ZM10.8 6.2998C10.8 5.90198 10.9581 5.52045 11.2394 5.23914C11.5207 4.95784 11.9022 4.7998 12.3 4.7998C12.6979 4.7998 13.0794 4.95784 13.3607 5.23914C13.642 5.52045 13.8 5.90198 13.8 6.2998C13.8 6.69763 13.642 7.07916 13.3607 7.36047C13.0794 7.64177 12.6979 7.7998 12.3 7.7998C11.9022 7.7998 11.5207 7.64177 11.2394 7.36047C10.9581 7.07916 10.8 6.69763 10.8 6.2998Z" fill="black"/>
</svg>
