<svg width="20" height="20" viewBox="0 0 20 20" fill="none" xmlns="http://www.w3.org/2000/svg">
<path fill-rule="evenodd" clip-rule="evenodd" d="M7.96191 7.88484V15.8353H14.3116C15.859 15.8353 16.0724 13.9143 16.1258 12.7938C16.1516 12.2511 16.3102 11.6682 16.4669 11.0924C16.6337 10.4794 16.7984 9.87431 16.7984 9.33411C16.7984 8.28648 16.5656 7.00604 14.9359 7.00604H13.5564V4.46197C13.5564 3.62556 12.1534 2.08314 11.0128 3.02988V5.09215C11.0128 5.3303 10.6037 5.50728 10.0851 5.73161C9.18749 6.11989 7.96191 6.65005 7.96191 7.88484ZM4.20166 7.80083C3.64938 7.80083 3.20166 8.24855 3.20166 8.80083V16.2681C3.20166 16.8204 3.64938 17.2681 4.20166 17.2681H6.159C6.71128 17.2681 7.159 16.8204 7.159 16.2681V8.80083C7.159 8.24855 6.71128 7.80083 6.159 7.80083H4.20166Z" fill="#888888"/>
</svg>
