<svg width="19" height="19" viewBox="0 0 19 19" fill="none" xmlns="http://www.w3.org/2000/svg">
<mask id="mask0_546_6486" style="mask-type:alpha" maskUnits="userSpaceOnUse" x="0" y="0" width="19" height="19">
<rect y="0.0410156" width="18.9591" height="18.9591" fill="#D9D9D9"/>
</mask>
<g mask="url(#mask0_546_6486)">
<path d="M8.68392 14.3364C10.2353 14.3364 11.5608 13.792 12.6603 12.7032C13.7599 11.6144 14.3097 10.2885 14.3097 8.72543C14.3097 7.17574 13.7614 5.85171 12.6648 4.75335C11.5682 3.65499 10.2443 3.1058 8.69298 3.1058C7.12833 3.1058 5.79948 3.6535 4.70643 4.7489C3.61338 5.8443 3.06685 7.1668 3.06685 8.71639C3.06685 10.2793 3.61184 11.6067 4.70182 12.6986C5.7918 13.7905 7.11917 14.3364 8.68392 14.3364ZM8.68825 16.4031C7.62231 16.4031 6.62387 16.2017 5.69292 15.7987C4.762 15.3958 3.94845 14.8466 3.25228 14.1512C2.55611 13.4558 2.00633 12.6428 1.60295 11.7124C1.19956 10.7819 0.997864 9.784 0.997864 8.71859C0.997864 7.6674 1.19956 6.67386 1.60295 5.73798C2.00633 4.80209 2.55611 3.98644 3.25228 3.29103C3.94845 2.59562 4.76226 2.04644 5.69373 1.64349C6.62519 1.24054 7.6242 1.03906 8.69077 1.03906C9.74311 1.03906 10.7364 1.24102 11.6706 1.64493C12.6048 2.04884 13.4213 2.59802 14.1202 3.29247C14.819 3.98693 15.3702 4.80138 15.7736 5.73583C16.1769 6.6703 16.3786 7.66539 16.3786 8.7211C16.3786 9.60846 16.2386 10.4473 15.9584 11.2376C15.6782 12.0279 15.2913 12.7489 14.7976 13.4005L18.2238 16.8069C18.6295 17.2103 18.6303 17.8665 18.2255 18.2708C17.8221 18.6738 17.1684 18.6738 16.7649 18.2708L13.3337 14.8433C12.6839 15.3366 11.965 15.7199 11.1769 15.9932C10.3888 16.2665 9.55929 16.4031 8.68825 16.4031Z" fill="#333333"/>
</g>
</svg>
