<svg width="26" height="27" viewBox="0 0 26 27" fill="none" xmlns="http://www.w3.org/2000/svg">
<g clip-path="url(#clip0_546_6494)">
<rect width="26" height="27" rx="13" fill="#F2F2F2"/>
<mask id="mask0_546_6494" style="mask-type:alpha" maskUnits="userSpaceOnUse" x="-9" y="-9" width="44" height="45">
<rect x="-9" y="-8.5" width="44" height="44" fill="#D9D9D9"/>
</mask>
<g mask="url(#mask0_546_6494)">
<path d="M13 13.2357C12.2233 13.2357 11.5585 12.9409 11.0054 12.3515C10.4524 11.7621 10.1758 11.0535 10.1758 10.2258C10.1758 9.39802 10.4524 8.68943 11.0054 8.09999C11.5585 7.51054 12.2233 7.21582 13 7.21582C13.7766 7.21582 14.4414 7.51054 14.9945 8.09999C15.5476 8.68943 15.8241 9.39802 15.8241 10.2258C15.8241 11.0535 15.5476 11.7621 14.9945 12.3515C14.4414 12.9409 13.7766 13.2357 13 13.2357ZM6.94824 19.7848V17.873C6.94824 17.4518 7.05557 17.0618 7.27024 16.7029C7.48488 16.3441 7.77169 16.0682 8.13065 15.8752C8.92824 15.4584 9.73282 15.1459 10.5444 14.9375C11.3559 14.7291 12.1745 14.6249 13 14.6249C13.8255 14.6249 14.644 14.7291 15.4556 14.9375C16.2671 15.1459 17.0717 15.4584 17.8693 15.8752C18.2282 16.0682 18.515 16.3441 18.7297 16.7029C18.9444 17.0618 19.0517 17.4518 19.0517 17.873V19.7848H6.94824Z" fill="#A7A7A7"/>
</g>
</g>
<defs>
<clipPath id="clip0_546_6494">
<rect width="26" height="27" rx="13" fill="white"/>
</clipPath>
</defs>
</svg>
