<svg width="150" height="33" viewBox="0 0 150 33" fill="none" xmlns="http://www.w3.org/2000/svg">
<g clip-path="url(#clip0_546_6459)">
<path d="M0 5.78667H5.88147L7.99427 21.2315L8.67399 21.1867L11.1399 5.78667H15.8601L18.2259 20.5595L18.9094 20.5147L21.1469 0H27L22.1041 26.8893L16.0017 27.2907L13.7964 13.5333H13.2036L10.9454 27.6229L5.19231 28L0 5.78667Z" fill="#FF0558"/>
<path d="M28.6556 6L25 27H29.4034L29.8984 23.6065H34.0689L34.5547 27H39L35.3026 6H28.6556ZM30.4552 19.7875L31.7289 11.0474H32.2693L33.5212 19.7875H30.4552Z" fill="#FF0558"/>
<path d="M89.3008 6H82.6556L79 27H83.4034L83.8984 23.6065H88.0689L88.5547 27H93L89.3026 6H89.3008ZM84.4533 19.7875L85.7271 11.0474H86.2675L87.5194 19.7875H84.4533Z" fill="#FF0558"/>
<path d="M57 6.00191C52.9435 6.00191 51 8.31067 51 11.8826V22.1193C51 25.6912 52.9454 28 57 28C61.0546 28 63 25.6912 63 22.1193V18.4177H58.49V22.5563C58.49 23.6897 58.0765 24.0808 57 24.0808C55.9235 24.0808 55.51 23.6897 55.51 22.5563V11.4456C55.51 10.3122 55.9235 9.92108 57 9.92108C58.0765 9.92108 58.49 10.3122 58.49 11.4456V13.8841H63V11.8807C63 8.30876 61.0546 6 57 6V6.00191Z" fill="#FF0558"/>
<path d="M38 10.3691H41.8857V27H46.5714V10.3691H50V6H38V10.3691Z" fill="#FF0558"/>
<path d="M72.5746 14.3108H69.4254V6H65V27H69.4254V18.5851H72.5746V27H77V6H72.5746V14.3108Z" fill="#FF0558"/>
<path d="M99 6H103.783C105.792 6 107.066 6.59469 107.632 7.93274C107.943 8.64637 108 9.2708 108 11.5919C108 13.9131 107.943 14.5357 107.632 15.2809C107.066 16.5892 105.793 17.1839 103.783 17.1839H101.605V27H99.0018V6H99ZM103.132 14.7141C104.207 14.7141 104.886 14.5059 105.197 13.7626C105.339 13.4355 105.395 13.1381 105.395 11.5325C105.395 9.92681 105.339 9.62947 105.197 9.27266C104.886 8.55903 104.207 8.35089 103.132 8.35089H101.605V14.7159H103.132V14.7141Z" fill="#1C1D1F"/>
<path d="M111 6H119V8.49814H113.841V14.5967H118.907V17.1245H113.841V24.5019H119V27H111V6Z" fill="#1C1D1F"/>
<path d="M120 6H124.879C127.645 6 129.447 7.01106 130.348 8.8845C130.845 9.98478 131 10.9958 131 16.4991C131 22.0023 130.845 23.0134 130.348 24.1136C129.447 25.9871 127.645 27 124.879 27H120V6ZM124.63 24.5021C126.245 24.5021 127.177 23.9371 127.645 22.926C127.987 22.2123 128.08 21.5878 128.08 16.5307C128.08 11.4735 127.987 10.7895 127.645 10.0758C127.179 9.03505 126.247 8.49978 124.63 8.49978H122.86V24.5039H124.63V24.5021Z" fill="#1C1D1F"/>
<path d="M134 6H137V27H134V6Z" fill="#1C1D1F"/>
<path d="M146.565 22.7758H141.461L140.745 27H138L141.91 6H146.119L150 27H147.285L146.569 22.7758H146.565ZM146.147 20.3673L144.029 8.20221H143.969L141.881 20.3673H146.149H146.147Z" fill="#1C1D1F"/>
</g>
<defs>
<clipPath id="clip0_546_6459">
<rect width="150" height="33" fill="white"/>
</clipPath>
</defs>
</svg>
