<svg width="27" height="27" viewBox="0 0 27 27" fill="none" xmlns="http://www.w3.org/2000/svg">
<mask id="mask0_426_24875" style="mask-type:alpha" maskUnits="userSpaceOnUse" x="0" y="0" width="27" height="27">
<rect y="0.0720215" width="27" height="26.928" fill="#D9D9D9"/>
</mask>
<g mask="url(#mask0_426_24875)">
<path d="M4.60248 21.6746V18.1412L18.4098 4.37684C18.568 4.23345 18.7428 4.12265 18.9341 4.04444C19.1253 3.96623 19.3259 3.92712 19.5358 3.92712C19.7456 3.92712 19.949 3.96427 20.1457 4.03857C20.3425 4.11285 20.5166 4.23096 20.6683 4.39289L21.9465 5.68379C22.1089 5.83503 22.2247 6.00906 22.2938 6.20589C22.3629 6.40269 22.3975 6.5995 22.3975 6.79631C22.3975 7.00623 22.3615 7.20657 22.2896 7.39732C22.2177 7.58809 22.1034 7.76241 21.9465 7.92028L8.14534 21.6746H4.60248ZM19.3115 8.30576L20.8273 6.80403L19.5129 5.49306L18.0071 7.00481L19.3115 8.30576Z" fill="#FF0558"/>
</g>
</svg>
