<svg width="27" height="27" viewBox="0 0 27 27" fill="none" xmlns="http://www.w3.org/2000/svg">
<mask id="mask0_426_24081" style="mask-type:alpha" maskUnits="userSpaceOnUse" x="0" y="0" width="27" height="27">
<rect width="27" height="27" fill="#D9D9D9"/>
</mask>
<g mask="url(#mask0_426_24081)">
<path d="M13.5 24C11.9783 24 10.5483 23.7244 9.21 23.1731C7.87167 22.6219 6.7075 21.8738 5.7175 20.9288C4.7275 19.9838 3.94375 18.8725 3.36625 17.595C2.78875 16.3175 2.5 14.9525 2.5 13.5C2.5 12.0475 2.78875 10.6825 3.36625 9.405C3.94375 8.1275 4.7275 7.01625 5.7175 6.07125C6.7075 5.12625 7.87167 4.37813 9.21 3.82688C10.5483 3.27562 11.9783 3 13.5 3C15.0217 3 16.4517 3.27562 17.79 3.82688C19.1283 4.37813 20.2925 5.12625 21.2825 6.07125C22.2725 7.01625 23.0563 8.1275 23.6338 9.405C24.2113 10.6825 24.5 12.0475 24.5 13.5C24.5 14.9525 24.2113 16.3175 23.6338 17.595C23.0563 18.8725 22.2725 19.9838 21.2825 20.9288C20.2925 21.8738 19.1283 22.6219 17.79 23.1731C16.4517 23.7244 15.0217 24 13.5 24ZM13.5 21.9C14.49 21.9 15.4433 21.7469 16.36 21.4406C17.2767 21.1344 18.12 20.6925 18.89 20.115L6.57 8.355C5.965 9.09 5.50208 9.895 5.18125 10.77C4.86042 11.645 4.7 12.555 4.7 13.5C4.7 15.845 5.5525 17.8312 7.2575 19.4587C8.9625 21.0863 11.0433 21.9 13.5 21.9ZM20.43 18.645C21.035 17.91 21.4979 17.105 21.8188 16.23C22.1396 15.355 22.3 14.445 22.3 13.5C22.3 11.155 21.4475 9.16875 19.7425 7.54125C18.0375 5.91375 15.9567 5.1 13.5 5.1C12.51 5.1 11.5567 5.25312 10.64 5.55938C9.72333 5.86563 8.88 6.3075 8.11 6.885L20.43 18.645Z" fill="#FF0558"/>
</g>
</svg>
