<svg width="47" height="46" viewBox="0 0 47 46" fill="none" xmlns="http://www.w3.org/2000/svg">
<mask id="mask0_251_34618" style="mask-type:alpha" maskUnits="userSpaceOnUse" x="0" y="0" width="47" height="46">
<rect x="0.753906" width="46" height="46" fill="#D9D9D9"/>
</mask>
<g mask="url(#mask0_251_34618)">
<path d="M15.6029 26C14.8441 26 14.1947 25.7062 13.6547 25.1187C13.1147 24.5313 12.8447 23.825 12.8447 23C12.8447 22.1703 13.1145 21.4629 13.6539 20.8778C14.1934 20.2926 14.842 20 15.5996 20C16.3593 20 17.0097 20.2926 17.5507 20.8778C18.0918 21.4629 18.3623 22.1689 18.3623 22.9957C18.3623 23.8225 18.0921 24.5299 17.5517 25.1179C17.0113 25.706 16.3617 26 15.6029 26ZM23.7577 26C22.9985 26 22.3489 25.7062 21.8089 25.1187C21.2689 24.5313 20.9989 23.825 20.9989 23C20.9989 22.1703 21.2687 21.4629 21.8082 20.8778C22.3476 20.2926 22.9962 20 23.7538 20C24.5156 20 25.1652 20.2926 25.7025 20.8778C26.2399 21.4629 26.5086 22.1689 26.5086 22.9957C26.5086 23.8225 26.2399 24.5299 25.7025 25.1179C25.1652 25.706 24.5169 26 23.7577 26ZM31.9102 26C31.1498 26 30.4989 25.7062 29.9574 25.1187C29.416 24.5313 29.1452 23.825 29.1452 23C29.1452 22.1703 29.416 21.4629 29.9574 20.8778C30.4989 20.2926 31.1498 20 31.9102 20C32.6705 20 33.3194 20.2926 33.8568 20.8778C34.3941 21.4629 34.6628 22.1689 34.6628 22.9957C34.6628 23.8225 34.3941 24.5299 33.8568 25.1179C33.3194 25.706 32.6705 26 31.9102 26Z" fill="#888888"/>
</g>
</svg>
