<svg width="27" height="27" viewBox="0 0 27 27" fill="none" xmlns="http://www.w3.org/2000/svg">
<mask id="mask0_426_19414" style="mask-type:alpha" maskUnits="userSpaceOnUse" x="0" y="0" width="27" height="27">
<rect width="27" height="27" fill="#D9D9D9"/>
</mask>
<g mask="url(#mask0_426_19414)">
<path d="M16.5091 20.1549C15.7912 20.1549 15.1819 19.9088 14.6811 19.4166C14.1803 18.9243 13.9299 18.3254 13.9299 17.6197C13.9299 16.9141 14.1803 16.3152 14.6811 15.8229C15.1819 15.3307 15.7912 15.0845 16.5091 15.0845C17.2269 15.0845 17.8363 15.3307 18.3371 15.8229C18.8379 16.3152 19.0883 16.9141 19.0883 17.6197C19.0883 18.3254 18.8379 18.9243 18.3371 19.4166C17.8363 19.9088 17.2269 20.1549 16.5091 20.1549ZM6.02038 24C5.45581 24 4.97794 23.8077 4.58677 23.4232C4.19559 23.0387 4 22.569 4 22.0141V7.30987C4 6.75493 4.19559 6.28521 4.58677 5.9007C4.97794 5.51619 5.45581 5.32394 6.02038 5.32394H7.5679V3H9.28732V5.32394H17.7556V3H19.4321V5.32394H20.9796C21.5442 5.32394 22.0221 5.51619 22.4132 5.9007C22.8044 6.28521 23 6.75493 23 7.30987V22.0141C23 22.569 22.8044 23.0387 22.4132 23.4232C22.0221 23.8077 21.5442 24 20.9796 24H6.02038ZM6.02038 22.3521H20.9796C21.0656 22.3521 21.1444 22.3169 21.2161 22.2465C21.2877 22.1761 21.3236 22.0986 21.3236 22.0141V11.7043H5.67645V22.0141C5.67645 22.0986 5.71227 22.1761 5.78391 22.2465C5.85557 22.3169 5.93439 22.3521 6.02038 22.3521Z" fill="#333333"/>
</g>
</svg>
