<svg width="27" height="27" viewBox="0 0 27 27" fill="none" xmlns="http://www.w3.org/2000/svg">
<mask id="mask0_426_24086" style="mask-type:alpha" maskUnits="userSpaceOnUse" x="0" y="0" width="27" height="27">
<rect width="27" height="27" fill="#D9D9D9"/>
</mask>
<g mask="url(#mask0_426_24086)">
<path d="M13.5 19.7545L17.5837 15.6708L16.4059 14.493L14.3382 16.5607V11.5871H12.6618V16.5607L10.5941 14.493L9.4163 15.6708L13.5 19.7545ZM6.10635 23C5.54896 23 5.05855 22.7883 4.63513 22.3649C4.21171 21.9414 4 21.451 4 20.8936V7.91823C4 7.67894 4.03834 7.45076 4.11501 7.23367C4.19166 7.0166 4.30665 6.81637 4.45997 6.63296L6.02898 4.73508C6.21239 4.49579 6.44165 4.31345 6.71676 4.18807C6.99187 4.06269 7.28274 4 7.58939 4H19.3891C19.6957 4 19.9884 4.06269 20.2671 4.18807C20.5458 4.31345 20.7768 4.49579 20.9603 4.73508L22.54 6.65445C22.6934 6.83785 22.8083 7.03989 22.885 7.26055C22.9617 7.48121 23 7.71119 23 7.95047V20.8936C23 21.451 22.7883 21.9414 22.3649 22.3649C21.9414 22.7883 21.451 23 20.8936 23H6.10635ZM6.11275 7.24549H20.8765L19.6578 5.79467C19.622 5.75885 19.5808 5.73019 19.5342 5.70869C19.4876 5.6872 19.4393 5.67645 19.3891 5.67645H7.60015C7.54998 5.67645 7.50162 5.6872 7.45505 5.70869C7.40848 5.73019 7.36727 5.75885 7.33144 5.79467L6.11275 7.24549Z" fill="#FF0558"/>
</g>
</svg>
