<svg width="58" height="59" viewBox="0 0 58 59" fill="none" xmlns="http://www.w3.org/2000/svg">
<rect y="0.639648" width="58" height="58" rx="29" fill="#F2F2F2"/>
<mask id="mask0_426_19361" style="mask-type:alpha" maskUnits="userSpaceOnUse" x="7" y="6" width="44" height="45">
<rect x="7" y="6.63965" width="44" height="44" fill="#D9D9D9"/>
</mask>
<g mask="url(#mask0_426_19361)">
<path d="M28.5 28.5712C26.7675 28.5712 25.2844 27.9381 24.0507 26.6719C22.8169 25.4056 22.2 23.8835 22.2 22.1054C22.2 20.3273 22.8169 18.8052 24.0507 17.539C25.2844 16.2728 26.7675 15.6396 28.5 15.6396C30.2325 15.6396 31.7156 16.2728 32.9493 17.539C34.1831 18.8052 34.8 20.3273 34.8 22.1054C34.8 23.8835 34.1831 25.4056 32.9493 26.6719C31.7156 27.9381 30.2325 28.5712 28.5 28.5712ZM15 42.6396V38.5328C15 37.6281 15.2394 36.7903 15.7183 36.0194C16.1971 35.2485 16.8369 34.6558 17.6377 34.2413C19.4169 33.346 21.2117 32.6746 23.0221 32.2269C24.8325 31.7793 26.6585 31.5555 28.5 31.5555C30.3415 31.5555 32.1675 31.7793 33.9779 32.2269C35.7882 32.6746 37.5831 33.346 39.3623 34.2413C40.1631 34.6558 40.8029 35.2485 41.2817 36.0194C41.7606 36.7903 42 37.6281 42 38.5328V42.6396H15Z" fill="#A7A7A7"/>
</g>
</svg>
