<svg width="46" height="45" viewBox="0 0 46 45" fill="none" xmlns="http://www.w3.org/2000/svg">
<mask id="mask0_251_34583" style="mask-type:alpha" maskUnits="userSpaceOnUse" x="0" y="0" width="46" height="45">
<rect x="0.705078" width="45" height="45" rx="1" fill="#D9D9D9"/>
</mask>
<g mask="url(#mask0_251_34583)">
<path d="M11.3458 43.7604C10.589 44.2217 9.65064 43.5434 9.85126 42.6802L12.8716 29.6837C12.9553 29.3236 12.8334 28.9466 12.5547 28.7036L2.48494 19.9238C1.81915 19.3433 2.17792 18.2478 3.05812 18.1736L16.2871 17.0585C16.6578 17.0272 16.9805 16.7928 17.1248 16.4499L22.2834 4.1905C22.6268 3.37429 23.7834 3.37429 24.1268 4.1905L29.2853 16.4499C29.4296 16.7928 29.7523 17.0272 30.1231 17.0585L43.352 18.1736C44.2322 18.2478 44.591 19.3433 43.9252 19.9238L33.8555 28.7036C33.5768 28.9466 33.4549 29.3236 33.5386 29.6837L36.5589 42.6802C36.7595 43.5434 35.8211 44.2217 35.0644 43.7604L23.7255 36.849C23.4059 36.6541 23.0042 36.6541 22.6846 36.849L11.3458 43.7604Z" fill="#A7A7A7"/>
</g>
</svg>
