<svg width="47" height="46" viewBox="0 0 47 46" fill="none" xmlns="http://www.w3.org/2000/svg">
<mask id="mask0_251_34601" style="mask-type:alpha" maskUnits="userSpaceOnUse" x="0" y="0" width="47" height="46">
<rect x="0.0917969" width="46" height="46" fill="#D9D9D9"/>
</mask>
<g mask="url(#mask0_251_34601)">
<path d="M7.43983 40V33.4299L31.729 7.83621C32.0074 7.56959 32.3149 7.36357 32.6514 7.21814C32.9878 7.07271 33.3407 7 33.7099 7C34.079 7 34.4367 7.06907 34.7828 7.20722C35.1289 7.34534 35.4353 7.56495 35.7021 7.86606L37.9508 10.2664C38.2364 10.5476 38.44 10.8712 38.5616 11.2372C38.6832 11.6031 38.744 11.9691 38.744 12.335C38.744 12.7253 38.6808 13.0979 38.5543 13.4525C38.4278 13.8073 38.2267 14.1314 37.9508 14.4249L13.6723 40H7.43983ZM33.3154 15.1417L35.9819 12.3494L33.6695 9.91173L31.0207 12.7227L33.3154 15.1417Z" fill="#888888"/>
</g>
</svg>
