<svg width="47" height="46" viewBox="0 0 47 46" fill="none" xmlns="http://www.w3.org/2000/svg">
<mask id="mask0_251_34590" style="mask-type:alpha" maskUnits="userSpaceOnUse" x="0" y="0" width="47" height="46">
<rect x="0.480469" width="46" height="46" fill="#D9D9D9"/>
</mask>
<g mask="url(#mask0_251_34590)">
<path fill-rule="evenodd" clip-rule="evenodd" d="M9.13081 39.9394C9.13081 40.8009 10.0117 41.3818 10.8035 41.0424L23.0081 35.8119C23.31 35.6825 23.6517 35.6825 23.9535 35.8119L36.1581 41.0424C36.95 41.3818 37.8308 40.8009 37.8308 39.9394V13.6994H9.13081V39.9394ZM9.13081 10.8348V8.95926C9.13081 7.83175 9.53227 6.86655 10.3352 6.06363C11.1381 5.26071 12.1033 4.85925 13.2308 4.85925H33.7308C34.8583 4.85925 35.8235 5.26071 36.6264 6.06363C37.4294 6.86655 37.8308 7.83175 37.8308 8.95926V10.8348H9.13081Z" fill="#333333"/>
</g>
</svg>
