<svg width="70" height="15" viewBox="0 0 70 15" fill="none" xmlns="http://www.w3.org/2000/svg">
<mask id="mask0_426_19714" style="mask-type:alpha" maskUnits="userSpaceOnUse" x="0" y="0" width="14" height="15">
<rect y="0.639648" width="14" height="14" rx="1" fill="#D9D9D9"/>
</mask>
<g mask="url(#mask0_426_19714)">
<path d="M4.71138 13.3999C3.95462 13.8612 3.01625 13.1829 3.21687 12.3197L3.69144 10.2776C3.77513 9.91744 3.65327 9.54049 3.37457 9.2975L1.77986 7.90708C1.11407 7.32658 1.47284 6.23107 2.35304 6.15688L4.43233 5.9816C4.80304 5.95035 5.12576 5.71589 5.27005 5.37298L6.07828 3.45221C6.42172 2.63601 7.57828 2.63601 7.92172 3.45222L8.72995 5.37298C8.87424 5.71589 9.19696 5.95035 9.56767 5.9816L11.647 6.15688C12.5272 6.23107 12.8859 7.32658 12.2201 7.90708L10.6254 9.2975C10.3467 9.54049 10.2249 9.91744 10.3086 10.2776L10.7831 12.3197C10.9837 13.1829 10.0454 13.8612 9.28862 13.3999L7.52047 12.3222C7.20084 12.1273 6.79916 12.1273 6.47953 12.3222L4.71138 13.3999Z" fill="#FF0558"/>
</g>
<mask id="mask1_426_19714" style="mask-type:alpha" maskUnits="userSpaceOnUse" x="14" y="0" width="14" height="15">
<rect x="14" y="0.639648" width="14" height="14" rx="1" fill="#D9D9D9"/>
</mask>
<g mask="url(#mask1_426_19714)">
<path d="M18.7114 13.3999C17.9546 13.8612 17.0163 13.1829 17.2169 12.3197L17.6914 10.2776C17.7751 9.91744 17.6533 9.54049 17.3746 9.2975L15.7799 7.90708C15.1141 7.32658 15.4728 6.23107 16.353 6.15688L18.4323 5.9816C18.803 5.95035 19.1258 5.71589 19.2701 5.37298L20.0783 3.45221C20.4217 2.63601 21.5783 2.63601 21.9217 3.45222L22.7299 5.37298C22.8742 5.71589 23.197 5.95035 23.5677 5.9816L25.647 6.15688C26.5272 6.23107 26.8859 7.32658 26.2201 7.90708L24.6254 9.2975C24.3467 9.54049 24.2249 9.91744 24.3086 10.2776L24.7831 12.3197C24.9837 13.1829 24.0454 13.8612 23.2886 13.3999L21.5205 12.3222C21.2008 12.1273 20.7992 12.1273 20.4795 12.3222L18.7114 13.3999Z" fill="#FF0558"/>
</g>
<mask id="mask2_426_19714" style="mask-type:alpha" maskUnits="userSpaceOnUse" x="28" y="0" width="14" height="15">
<rect x="28" y="0.639648" width="14" height="14" rx="1" fill="#D9D9D9"/>
</mask>
<g mask="url(#mask2_426_19714)">
<path d="M32.7114 13.3999C31.9546 13.8612 31.0163 13.1829 31.2169 12.3197L31.6914 10.2776C31.7751 9.91744 31.6533 9.54049 31.3746 9.2975L29.7799 7.90708C29.1141 7.32658 29.4728 6.23107 30.353 6.15688L32.4323 5.9816C32.803 5.95035 33.1258 5.71589 33.2701 5.37298L34.0783 3.45221C34.4217 2.63601 35.5783 2.63601 35.9217 3.45222L36.7299 5.37298C36.8742 5.71589 37.197 5.95035 37.5677 5.9816L39.647 6.15688C40.5272 6.23107 40.8859 7.32658 40.2201 7.90708L38.6254 9.2975C38.3467 9.54049 38.2249 9.91744 38.3086 10.2776L38.7831 12.3197C38.9837 13.1829 38.0454 13.8612 37.2886 13.3999L35.5205 12.3222C35.2008 12.1273 34.7992 12.1273 34.4795 12.3222L32.7114 13.3999Z" fill="#FF0558"/>
</g>
<mask id="mask3_426_19714" style="mask-type:alpha" maskUnits="userSpaceOnUse" x="42" y="0" width="14" height="15">
<rect x="42" y="0.639648" width="14" height="14" rx="1" fill="#D9D9D9"/>
</mask>
<g mask="url(#mask3_426_19714)">
<path d="M46.7114 13.3999C45.9546 13.8612 45.0163 13.1829 45.2169 12.3197L45.6914 10.2776C45.7751 9.91744 45.6533 9.54049 45.3746 9.2975L43.7799 7.90708C43.1141 7.32658 43.4728 6.23107 44.353 6.15688L46.4323 5.9816C46.803 5.95035 47.1258 5.71589 47.2701 5.37298L48.0783 3.45221C48.4217 2.63601 49.5783 2.63601 49.9217 3.45222L50.7299 5.37298C50.8742 5.71589 51.197 5.95035 51.5677 5.9816L53.647 6.15688C54.5272 6.23107 54.8859 7.32658 54.2201 7.90708L52.6254 9.2975C52.3467 9.54049 52.2249 9.91744 52.3086 10.2776L52.7831 12.3197C52.9837 13.1829 52.0454 13.8612 51.2886 13.3999L49.5205 12.3222C49.2008 12.1273 48.7992 12.1273 48.4795 12.3222L46.7114 13.3999Z" fill="#FF0558"/>
</g>
<mask id="mask4_426_19714" style="mask-type:alpha" maskUnits="userSpaceOnUse" x="56" y="0" width="14" height="15">
<rect x="56" y="0.639648" width="14" height="14" rx="1" fill="#D9D9D9"/>
</mask>
<g mask="url(#mask4_426_19714)">
<path d="M60.7114 13.3999C59.9546 13.8612 59.0163 13.1829 59.2169 12.3197L59.6914 10.2776C59.7751 9.91744 59.6533 9.54049 59.3746 9.2975L57.7799 7.90708C57.1141 7.32658 57.4728 6.23107 58.353 6.15688L60.4323 5.9816C60.803 5.95035 61.1258 5.71589 61.2701 5.37298L62.0783 3.45221C62.4217 2.63601 63.5783 2.63601 63.9217 3.45222L64.7299 5.37298C64.8742 5.71589 65.197 5.95035 65.5677 5.9816L67.647 6.15688C68.5272 6.23107 68.8859 7.32658 68.2201 7.90708L66.6254 9.2975C66.3467 9.54049 66.2249 9.91744 66.3086 10.2776L66.7831 12.3197C66.9837 13.1829 66.0454 13.8612 65.2886 13.3999L63.5205 12.3222C63.2008 12.1273 62.7992 12.1273 62.4795 12.3222L60.7114 13.3999Z" fill="#A7A7A7"/>
</g>
</svg>
