<svg width="20" height="21" viewBox="0 0 20 21" fill="none" xmlns="http://www.w3.org/2000/svg">
<path fill-rule="evenodd" clip-rule="evenodd" d="M7.96191 8.52449V16.4749H14.3116C15.859 16.4749 16.0724 14.554 16.1258 13.4335C16.1516 12.8907 16.3102 12.3079 16.4669 11.732C16.6337 11.119 16.7984 10.514 16.7984 9.97376C16.7984 8.92613 16.5656 7.64569 14.9359 7.64569H13.5564V5.10162C13.5564 4.26521 12.1534 2.72279 11.0128 3.66953V5.7318C11.0128 5.96995 10.6037 6.14693 10.0851 6.37126C9.18749 6.75954 7.96191 7.2897 7.96191 8.52449ZM4.20166 8.44048C3.64938 8.44048 3.20166 8.88819 3.20166 9.44048V16.9078C3.20166 17.46 3.64938 17.9078 4.20166 17.9078H6.159C6.71128 17.9078 7.159 17.46 7.159 16.9078V9.44048C7.159 8.88819 6.71128 8.44048 6.159 8.44048H4.20166Z" fill="#888888"/>
</svg>
