<svg width="47" height="46" viewBox="0 0 47 46" fill="none" xmlns="http://www.w3.org/2000/svg">
<mask id="mask0_251_34595" style="mask-type:alpha" maskUnits="userSpaceOnUse" x="0" y="0" width="47" height="46">
<rect x="0.480469" width="46" height="46" fill="#D9D9D9"/>
</mask>
<g mask="url(#mask0_251_34595)">
<path fill-rule="evenodd" clip-rule="evenodd" d="M11.5222 37.1162C11.5222 37.8341 12.2563 38.3181 12.9161 38.0353L23.0866 33.6765C23.3382 33.5687 23.6229 33.5687 23.8745 33.6765L34.045 38.0353C34.7048 38.3181 35.4389 37.8341 35.4389 37.1161V15.2494H11.5222V37.1162ZM11.5222 12.8623V11.2994C11.5222 10.3598 11.8568 9.55543 12.5259 8.88634C13.195 8.21724 13.9993 7.88269 14.9389 7.88269H32.0222C32.9618 7.88269 33.7661 8.21724 34.4352 8.88634C35.1043 9.55543 35.4389 10.3598 35.4389 11.2994V12.8623H11.5222Z" fill="#FF0558"/>
</g>
</svg>
