<svg width="47" height="46" viewBox="0 0 47 46" fill="none" xmlns="http://www.w3.org/2000/svg">
<mask id="mask0_251_34621" style="mask-type:alpha" maskUnits="userSpaceOnUse" x="0" y="0" width="47" height="46">
<rect x="0.753906" width="46" height="46" fill="#D9D9D9"/>
</mask>
<g mask="url(#mask0_251_34621)">
<path d="M13.9729 26.6C13.0623 26.6 12.283 26.2475 11.635 25.5425C10.9871 24.8375 10.6631 23.99 10.6631 23C10.6631 22.0044 10.9868 21.1556 11.6341 20.4534C12.2815 19.7511 13.0598 19.4 13.9689 19.4C14.8806 19.4 15.661 19.7511 16.3102 20.4534C16.9595 21.1556 17.2841 22.0027 17.2841 22.9949C17.2841 23.987 16.9599 24.8359 16.3114 25.5416C15.663 26.2472 14.8835 26.6 13.9729 26.6ZM23.7586 26.6C22.8475 26.6 22.068 26.2475 21.42 25.5425C20.772 24.8375 20.448 23.99 20.448 23C20.448 22.0044 20.7717 21.1556 21.4191 20.4534C22.0665 19.7511 22.8447 19.4 23.7538 19.4C24.668 19.4 25.4475 19.7511 26.0923 20.4534C26.7372 21.1556 27.0596 22.0027 27.0596 22.9949C27.0596 23.987 26.7372 24.8359 26.0923 25.5416C25.4475 26.2472 24.6696 26.6 23.7586 26.6ZM33.5414 26.6C32.629 26.6 31.8479 26.2475 31.1982 25.5425C30.5484 24.8375 30.2235 23.99 30.2235 23C30.2235 22.0044 30.5484 21.1556 31.1982 20.4534C31.8479 19.7511 32.629 19.4 33.5414 19.4C34.4539 19.4 35.2325 19.7511 35.8773 20.4534C36.5221 21.1556 36.8445 22.0027 36.8445 22.9949C36.8445 23.987 36.5221 24.8359 35.8773 25.5416C35.2325 26.2472 34.4539 26.6 33.5414 26.6Z" fill="#333333"/>
</g>
</svg>
