<svg width="47" height="46" viewBox="0 0 47 46" fill="none" xmlns="http://www.w3.org/2000/svg">
<mask id="mask0_251_34604" style="mask-type:alpha" maskUnits="userSpaceOnUse" x="0" y="0" width="47" height="46">
<rect x="0.0917969" width="46" height="46" fill="#D9D9D9"/>
</mask>
<g mask="url(#mask0_251_34604)">
<path d="M4.30957 42.2999V34.4159L33.4566 3.70341C33.7907 3.38346 34.1597 3.13623 34.5634 2.96172C34.9672 2.78721 35.3906 2.69995 35.8336 2.69995C36.2766 2.69995 36.7058 2.78284 37.1212 2.94862C37.5365 3.11436 37.9042 3.37789 38.2243 3.73922L40.9227 6.61961C41.2655 6.95706 41.5099 7.34538 41.6557 7.78455C41.8017 8.22368 41.8746 8.66282 41.8746 9.10195C41.8746 9.57036 41.7987 10.0174 41.6469 10.443C41.4952 10.8687 41.2538 11.2576 40.9227 11.6099L11.7885 42.2999H4.30957ZM35.3603 12.47L38.5601 9.11919L35.7852 6.19402L32.6066 9.56719L35.3603 12.47Z" fill="#333333"/>
</g>
</svg>
